<svg width="40" height="40" fill="none" xmlns="http://www.w3.org/2000/svg"><rect rx="20" width="40" height="40" fill="#FF3E79"/><path d="m18.25 23.45.41-.41-1.71-1.71-.41.41-.21-.21c-.33-.37-.65-.57-.98-.53-.24 0-.45.16-.61.41-.25.41-.13.86-.08 1.14 0 .09.04.13.04.21 0 .12 0 .28-.29.33-.41.12-.94.24-1.47.53-.74.41-1.23.77-1.51 1.14C9.91 26.72 10 28.4 10 28.48c0 .12.04.21.12.25l1.1 1.14c.08.08.17.13.25.13h.12c.41 0 1.88-.09 3.6-1.44.37-.28.73-.77 1.14-1.51.29-.49.45-1.02.53-1.47.09-.29.21-.29.33-.29.04 0 .12.04.2.04.17.04.33.09.54.09.2 0 .4-.05.61-.17.24-.16.41-.37.45-.61.04-.33-.12-.66-.49-.94l-.25-.25Zm8.63-8.58 1.13-.55c.05-.04.13-.08.17-.13l1.73-2.33c.12-.17.12-.43-.05-.56l-1.17-1.19c-.13-.12-.38-.17-.55-.04l-2.31 1.74c-.04.05-.09.09-.13.17l-.54 1.15L21 17.21 22.76 19l4.12-4.13Z" fill="#FFF"/><path d="M27.85 23.04A3.744 3.744 0 0 0 24.09 22l-6.45-6.83c.08-.38.12-.71.12-1.08 0-1.05-.4-2.09-1.15-2.88a3.697 3.697 0 0 0-3.99-1c-.08.04-.2.17-.24.34 0 .12.04.25.12.37l1.94 2.04c.43.46.43 1.25 0 1.71-.44.46-1.19.46-1.63 0l-1.94-2.04a.413.413 0 0 0-.39-.09c-.12 0-.24.13-.28.25-.47 1.46-.12 3.09.91 4.17.71.79 1.74 1.21 2.77 1.21.32 0 .67-.04.99-.13l6.49 6.83a4.33 4.33 0 0 0 .99 3.96c.75.79 1.7 1.17 2.73 1.17.43 0 .83-.09 1.26-.21a.5.5 0 0 0 .28-.29c.04-.13 0-.3-.12-.38l-1.94-2.04c-.19-.21-.35-.54-.35-.87 0-.34.12-.63.35-.88a1.124 1.124 0 0 1 1.67 0l1.93 2.04c.12.08.24.13.36.13.12-.05.24-.13.28-.25.12-.42.2-.88.2-1.34 0-1.08-.4-2.12-1.15-2.87Z" fill="#FFF"/></svg>