<svg width="40" height="40" fill="none" xmlns="http://www.w3.org/2000/svg"><rect rx="20" width="40" height="40" fill="#FF3E79"/><path d="M23.5 22h-.79l-.28-.27a6.5 6.5 0 0 0 1.48-5.34c-.47-2.78-2.79-5-5.59-5.34a6.505 6.505 0 0 0-7.27 7.27c.34 2.8 2.56 5.12 5.34 5.59a6.5 6.5 0 0 0 5.34-1.48l.27.28v.79l4.26 4.25c.41.41 1.07.41 1.48 0l.01-.01c.41-.41.41-1.07 0-1.48L23.5 22ZM13 17.5c0 2.49 2.01 4.5 4.5 4.5s4.5-2.01 4.5-4.5-2.01-4.5-4.5-4.5-4.5 2.01-4.5 4.5Z" clip-rule="evenodd" fill="#FFF" fill-rule="evenodd"/></svg>